<svg xmlns="http://www.w3.org/2000/svg" viewBox="0 0 512 512"><circle cx="256" cy="256" r="256" fill="#004197"/><path d="M111.600 4.500L111.600 4.500Q87.750 4.500 68.625-5.175Q49.500-14.850 38.475-34.650Q27.450-54.450 27.450-84.150L27.450-84.150L27.450-219.150L79.200-219.150L79.200-94.050Q79.200-75.150 84.825-63.900Q90.450-52.650 100.575-47.700Q110.700-42.750 123.300-42.750L123.300-42.750Q137.250-42.750 148.050-48.600Q158.850-54.450 165.150-66.375Q171.450-78.300 171.450-96.300L171.450-96.300L171.450-219.150L223.200-219.150L223.200 0L178.650 0L178.650-60.300L193.050-60.300Q188.550-40.500 179.100-27.675Q169.650-14.850 157.950-7.875Q146.250-0.900 134.100 1.800Q121.950 4.500 111.600 4.500Z" fill="#fff" transform="translate(130.67499923706055, 363.3249969482422)"/></svg>